PathFileType	4	(X/Y/Z)	/Users/itak/Documents/Research/Walk-IL/dataset/trc/00008_00004.trc
DataRate	CameraRate	NumFrames	NumMarkers	Units	OrigDataRate	OrigDataStartFrame	OrigNumFrames
100.000000	100.000000	4	53	mm	100.000000	77	620
Frame#	Time	RPSI			LPSI			L3			STRN			T10			C7			CLAV			RBAK			LBAK			LSHO			LUPA			LAEL			LAOL			LWTS			LWPS			LFRA			LIFD			LHPS			LHTS			RSHO			RUPA			RAEL			RAOL			RWTS			RWPS			RFRA			RIFD			RHTS			RHPS			RBHD			LFHD			RFHD			LBHD			LHIP			RHIP			RASI			LASI			LKNE			LTHI			LANK			LTIP			LTOE			LMT1			LMT5			LHEE			RKNE			RTHI			RANK			RTIP			RTOE			RMT1			RMT5			RHEE			
		X1	Y1	Z1	X2	Y2	Z2	X3	Y3	Z3	X4	Y4	Z4	X5	Y5	Z5	X6	Y6	Z6	X7	Y7	Z7	X8	Y8	Z8	X9	Y9	Z9	X10	Y10	Z10	X11	Y11	Z11	X12	Y12	Z12	X13	Y13	Z13	X14	Y14	Z14	X15	Y15	Z15	X16	Y16	Z16	X17	Y17	Z17	X18	Y18	Z18	X19	Y19	Z19	X20	Y20	Z20	X21	Y21	Z21	X22	Y22	Z22	X23	Y23	Z23	X24	Y24	Z24	X25	Y25	Z25	X26	Y26	Z26	X27	Y27	Z27	X28	Y28	Z28	X29	Y29	Z29	X30	Y30	Z30	X31	Y31	Z31	X32	Y32	Z32	X33	Y33	Z33	X34	Y34	Z34	X35	Y35	Z35	X36	Y36	Z36	X37	Y37	Z37	X38	Y38	Z38	X39	Y39	Z39	X40	Y40	Z40	X41	Y41	Z41	X42	Y42	Z42	X43	Y43	Z43	X44	Y44	Z44	X45	Y45	Z45	X46	Y46	Z46	X47	Y47	Z47	X48	Y48	Z48	X49	Y49	Z49	X50	Y50	Z50	X51	Y51	Z51	X52	Y52	Z52	X53	Y53	Z53	

78	0.77	-1209.841552734375	1071.498901367188	-134.0116271972656	-1215.923461914062	1069.011840820312	-297.346923828125	-1217.991455078125	1133.606323242188	-221.2014007568359	-987.174560546875	1321.170166015625	-219.98095703125	-1237.397216796875	1275.631103515625	-220.3575286865234	-1186.997924804688	1542.60888671875	-232.3912963867188	-1028.041259765625	1448.073364257812	-225.9693450927734	-1238.433715820312	1407.2978515625	-151.5200500488281	-1203.793701171875	1500.92138671875	-330.4787292480469	-1100.1884765625	1505.665771484375	-404.4594421386719	-1131.577758789062	1380.356201171875	-480.3798522949219	-1137.290893554688	1162.411499023438	-503.1410522460938	-1197.00341796875	1153.1298828125	-415.8696594238281	-1055.06396484375	910.0794067382812	-440.7549438476562	-1131.037719726562	895.2107543945312	-484.1708374023438	-1126.70751953125	1046.186645507812	-506.892333984375	-1029.584350585938	727.2780151367188	-416.536376953125	-1098.59228515625	805.8895263671875	-480.7677001953125	-1033.252319335938	816.8177490234375	-452.2071838378906	-1108.32470703125	1529.862060546875	-57.56681442260742	-1122.224975585938	1458.61865234375	16.05856132507324	-1162.9013671875	1190.168579101562	38.59473419189453	-1168.024780273438	1162.713256835938	-58.24446487426758	-1041.968383789062	927.0419921875	6.191094398498535	-1108.026245117188	914.932861328125	70.90923309326172	-1151.65234375	1114.360473632812	53.43071365356445	-1031.633178710938	741.61181640625	-8.875674247741699	-1013.838500976562	815.6947631835938	21.87339019775391	-1070.3876953125	813.40087890625	70.56198883056641	-1111.03515625	1726.013305664062	-152.8306884765625	-953.8744506835938	1729.843383789062	-295.4010314941406	-941.11376953125	1733.174194335938	-197.5835723876953	-1136.492065429688	1725.825561523438	-295.052978515625	-1123.799926757812	970.9487915039062	-411.0547485351562	-1096.863037109375	957.6529541015625	-37.70955276489258	-995.5150756835938	988.8895874023438	-113.5014953613281	-1004.357727050781	1012.60888671875	-346.42138671875	-1076.4228515625	524.8253784179688	-376.1213073730469	-1100.454711914062	660.8220825195312	-406.3589477539062	-1212.504516601562	46.22427368164062	-389.4291381835938	-1173.213256835938	294.2250671386719	-399.2420959472656	-993.4371337890625	40.54106521606445	-322.5544738769531	-1053.217895507812	51.25892639160156	-305.7715759277344	-1087.481201171875	41.01541519165039	-407.0824584960938	-1282.12255859375	56.02342987060547	-338.4764099121094	-1112.773071289062	522.0103759765625	-100.6239318847656	-1083.142944335938	788.3500366210938	-45.27691650390625	-1245.796264648438	47.06618499755859	-150.8491516113281	-1143.934204101562	400.2850646972656	-107.1334075927734	-1012.410827636719	44.26709747314453	-182.8375549316406	-1074.699584960938	50.79413604736328	-214.9282379150391	-1096.746948242188	44.34379577636719	-119.9587249755859	-1299.187377929688	50.67998123168945	-197.8644714355469	
79	0.78	-1209.2841796875	1071.72412109375	-133.5467681884766	-1215.07958984375	1069.246948242188	-296.8740539550781	-1217.330688476562	1133.882080078125	-220.6781158447266	-986.1253662109375	1321.095581054688	-219.0146789550781	-1236.334716796875	1275.91015625	-219.6785125732422	-1185.6005859375	1542.820190429688	-231.4734954833984	-1026.760620117188	1448.051391601562	-225.0363922119141	-1237.255126953125	1407.560668945312	-150.6937408447266	-1202.407470703125	1501.219116210938	-329.6134033203125	-1098.737182617188	1505.867797851562	-403.6179809570312	-1130.308959960938	1380.597412109375	-479.4625549316406	-1136.433471679688	1162.71435546875	-502.3654174804688	-1196.214233398438	1153.54443359375	-415.1803283691406	-1053.962524414062	910.6178588867188	-439.7798461914062	-1129.906616210938	895.529296875	-483.220947265625	-1125.821044921875	1046.494873046875	-506.076904296875	-1028.059204101562	727.9158935546875	-415.3965148925781	-1097.213134765625	806.261474609375	-479.7136840820312	-1031.753784179688	817.4828491210938	-451.0510559082031	-1107.006469726562	1529.9423828125	-56.68245697021484	-1120.9873046875	1458.7314453125	16.95184516906738	-1161.814453125	1190.339477539062	39.75067901611328	-1167.100830078125	1162.818237304688	-57.07848358154297	-1040.925903320312	927.1956787109375	7.333907127380371	-1106.907470703125	915.1063842773438	72.14400482177734	-1150.592407226562	1114.521362304688	54.60704803466797	-1030.60302734375	741.7703247070312	-7.677754402160645	-1012.727905273438	815.8482055664062	23.01465797424316	-1069.259155273438	813.5904541015625	71.80233001708984	-1109.386596679688	1726.099243164062	-151.8776245117188	-952.0910034179688	1729.649536132812	-294.3048095703125	-939.4374389648438	1732.956176757812	-196.4598083496094	-1134.723022460938	1725.969970703125	-294.0982971191406	-1122.825561523438	971.0943603515625	-410.4148559570312	-1096.62109375	957.7631225585938	-36.99131393432617	-994.9054565429688	988.9135131835938	-112.6312255859375	-1003.450012207031	1012.683288574219	-345.517333984375	-1075.682739257812	525.0852661132812	-375.4988708496094	-1099.818115234375	660.977294921875	-405.888671875	-1212.4248046875	46.52980804443359	-389.3577270507812	-1172.46923828125	294.3632507324219	-399.020263671875	-993.460693359375	40.58860778808594	-322.4503479003906	-1053.170654296875	51.28306579589844	-305.6435241699219	-1087.279663085938	41.23649597167969	-406.8822021484375	-1282.085327148438	56.3234748840332	-338.4949951171875	-1112.59130859375	522.1422729492188	-100.0398559570312	-1082.9541015625	788.4803466796875	-44.67626190185547	-1245.7470703125	47.323974609375	-150.9453735351562	-1143.904174804688	400.4085998535156	-106.7049407958984	-1012.374267578125	44.27759552001953	-182.7746887207031	-1074.677124023438	50.86196517944336	-214.8283538818359	-1096.73095703125	44.28850936889648	-119.8719863891602	-1299.119506835938	50.97791290283203	-197.9287414550781	
80	0.79	-1208.752807617188	1071.926147460938	-133.1011962890625	-1214.296020507812	1069.456420898438	-296.4256896972656	-1216.698852539062	1134.122924804688	-220.1931610107422	-985.12548828125	1321.003051757812	-218.1115570068359	-1235.319091796875	1276.15234375	-219.0602874755859	-1184.27197265625	1543.000122070312	-230.6117858886719	-1025.549682617188	1448.006469726562	-224.1473846435547	-1236.139892578125	1407.77880859375	-149.9271850585938	-1201.091064453125	1501.489990234375	-328.7890930175781	-1097.334228515625	1506.033447265625	-402.8030395507812	-1129.096313476562	1380.822387695312	-478.6044921875	-1135.631591796875	1162.9921875	-501.6485595703125	-1195.485595703125	1153.93603515625	-414.5637512207031	-1052.889038085938	911.1373901367188	-438.8212585449219	-1128.78369140625	895.826416015625	-482.30419921875	-1124.962158203125	1046.7783203125	-505.307861328125	-1026.5361328125	728.5588989257812	-414.2599792480469	-1095.819580078125	806.6168212890625	-478.6755981445312	-1030.24853515625	818.1536254882812	-449.9008483886719	-1105.766967773438	1529.982421875	-55.84317779541016	-1119.825317382812	1458.796264648438	17.79501914978027	-1160.760864257812	1190.462036132812	40.87253570556641	-1166.200073242188	1162.867431640625	-55.94283294677734	-1039.862426757812	927.3190307617188	8.461108207702637	-1105.766845703125	915.2418823242188	73.36286163330078	-1149.549682617188	1114.63623046875	55.75621795654297	-1029.535888671875	741.9027709960938	-6.480149269104004	-1011.585632324219	815.9827270507812	24.15327072143555	-1068.106201171875	813.755126953125	73.04750061035156	-1107.796508789062	1726.146606445312	-150.9484710693359	-950.3565063476562	1729.442504882812	-293.2196655273438	-937.8147583007812	1732.704223632812	-195.3497619628906	-1133.006469726562	1726.093139648438	-293.1648559570312	-1121.942138671875	971.1953735351562	-409.8077087402344	-1096.439697265625	957.8648681640625	-36.26737594604492	-994.3453369140625	988.9086303710938	-111.8267059326172	-1002.617858886719	1012.703247070312	-344.6926879882812	-1075.156860351562	525.2809448242188	-374.9266052246094	-1099.356323242188	661.0873413085938	-405.4526672363281	-1212.363403320312	46.76214981079102	-389.3081665039062	-1171.923828125	294.4798278808594	-398.8305969238281	-993.4977416992188	40.64401626586914	-322.3429870605469	-1053.144287109375	51.29645156860352	-305.5377502441406	-1087.099243164062	41.4262809753418	-406.71533203125	-1282.064697265625	56.5346565246582	-338.52880859375	-1112.435668945312	522.26025390625	-99.51898956298828	-1082.74169921875	788.6040649414062	-44.12165451049805	-1245.695922851562	47.57015228271484	-151.0137176513672	-1143.8740234375	400.5174255371094	-106.2965927124023	-1012.350463867188	44.29641723632812	-182.7256317138672	-1074.661865234375	50.93060302734375	-214.7309722900391	-1096.724609375	44.23562240600586	-119.7864151000977	-1299.064453125	51.24330139160156	-197.9893646240234	
81	0.8	-1208.238647460938	1072.104858398438	-132.6659851074219	-1213.5712890625	1069.638061523438	-295.9935302734375	-1216.088989257812	1134.32568359375	-219.7368621826172	-984.1778564453125	1320.892578125	-217.2784118652344	-1234.361572265625	1276.352294921875	-218.4994659423828	-1183.019165039062	1543.14453125	-229.8132934570312	-1024.4150390625	1447.937255859375	-223.3077545166016	-1235.093139648438	1407.94775390625	-149.2230377197266	-1199.852172851562	1501.726928710938	-328.0105590820312	-1095.992065429688	1506.159912109375	-402.0218505859375	-1127.947631835938	1381.0234375	-477.8093872070312	-1134.877319335938	1163.236572265625	-500.9912414550781	-1194.808349609375	1154.292358398438	-414.0199584960938	-1051.8447265625	911.622314453125	-437.8850402832031	-1127.667602539062	896.0930786132812	-481.4293823242188	-1124.12451171875	1047.029174804688	-504.5876159667969	-1025.042846679688	729.1832275390625	-413.1342468261719	-1094.422119140625	806.9440307617188	-477.6642150878906	-1028.759521484375	818.8076782226562	-448.7715454101562	-1104.612915039062	1529.9775390625	-55.05295562744141	-1118.745483398438	1458.808227539062	18.58470153808594	-1159.749145507812	1190.531127929688	41.95116424560547	-1165.3232421875	1162.85546875	-54.84543991088867	-1038.77880859375	927.4088134765625	9.570457458496094	-1104.609130859375	915.3353881835938	74.55896759033203	-1148.531494140625	1114.7001953125	56.87079238891602	-1028.426025390625	742.0040283203125	-5.281268119812012	-1010.411865234375	816.0956420898438	25.2896785736084	-1066.931030273438	813.8920288085938	74.29091644287109	-1106.2734375	1726.154907226562	-150.0460052490234	-948.6769409179688	1729.220581054688	-292.1476440429688	-936.250244140625	1732.416381835938	-194.2561340332031	-1131.346557617188	1726.195922851562	-292.258544921875	-1121.147827148438	971.2533569335938	-409.2318725585938	-1096.316040039062	957.9523315429688	-35.53425216674805	-993.82421875	988.87255859375	-111.0954284667969	-1001.865966796875	1012.669982910156	-343.9537963867188	-1074.8876953125	525.4205932617188	-374.4135437011719	-1099.081176757812	661.15576171875	-405.0413818359375	-1212.321899414062	46.92280197143555	-389.2784423828125	-1171.602783203125	294.5789794921875	-398.6668395996094	-993.5458374023438	40.7043342590332	-322.2365112304688	-1053.13720703125	51.29870223999023	-305.4538879394531	-1086.94921875	41.57974624633789	-406.5848999023438	-1282.058715820312	56.65811538696289	-338.5711059570312	-1112.316772460938	522.3571166992188	-99.06153869628906	-1082.509521484375	788.7117309570312	-43.60622406005859	-1245.647216796875	47.79377365112305	-151.0536193847656	-1143.84423828125	400.6094360351562	-105.9135818481445	-1012.338562011719	44.32051467895508	-182.6898345947266	-1074.6533203125	50.99753952026367	-214.6377410888672	-1096.72607421875	44.18647003173828	-119.7028274536133	-1299.02099609375	51.47372436523438	-198.0419921875	
